<mxfile host="Electron" agent="Mozilla/5.0 (Windows NT 10.0; Win64; x64) AppleWebKit/537.36 (KHTML, like Gecko) draw.io/24.7.8 Chrome/128.0.6613.36 Electron/32.0.1 Safari/537.36" version="24.7.8">
  <diagram name="Seite-1" id="-Xs48wAkYmjRc9a2gDb_">
    <mxGraphModel dx="1674" dy="2005" grid="1" gridSize="10" guides="1" tooltips="1" connect="1" arrows="1" fold="1" page="1" pageScale="1" pageWidth="827" pageHeight="1169" math="0" shadow="0">
      <root>
        <mxCell id="0" />
        <mxCell id="1" parent="0" />
        <mxCell id="tsAS8lpsQ9LGipK0SyVF-3" style="edgeStyle=orthogonalEdgeStyle;rounded=0;orthogonalLoop=1;jettySize=auto;html=1;entryX=0;entryY=0.5;entryDx=0;entryDy=0;" parent="1" source="tsAS8lpsQ9LGipK0SyVF-1" target="tsAS8lpsQ9LGipK0SyVF-2" edge="1">
          <mxGeometry relative="1" as="geometry" />
        </mxCell>
        <mxCell id="tsAS8lpsQ9LGipK0SyVF-1" value="" style="ellipse;whiteSpace=wrap;html=1;aspect=fixed;fillColor=#000000;" parent="1" vertex="1">
          <mxGeometry x="80" y="40" width="40" height="40" as="geometry" />
        </mxCell>
        <mxCell id="tsAS8lpsQ9LGipK0SyVF-5" style="edgeStyle=orthogonalEdgeStyle;rounded=0;orthogonalLoop=1;jettySize=auto;html=1;entryX=0;entryY=0.5;entryDx=0;entryDy=0;" parent="1" source="tsAS8lpsQ9LGipK0SyVF-2" target="tsAS8lpsQ9LGipK0SyVF-4" edge="1">
          <mxGeometry relative="1" as="geometry" />
        </mxCell>
        <mxCell id="tsAS8lpsQ9LGipK0SyVF-2" value="NoCardPlayed" style="rounded=1;whiteSpace=wrap;html=1;" parent="1" vertex="1">
          <mxGeometry x="160" y="30" width="120" height="60" as="geometry" />
        </mxCell>
        <mxCell id="tsAS8lpsQ9LGipK0SyVF-9" style="edgeStyle=orthogonalEdgeStyle;rounded=0;orthogonalLoop=1;jettySize=auto;html=1;entryX=0.5;entryY=0;entryDx=0;entryDy=0;exitX=0.5;exitY=0;exitDx=0;exitDy=0;" parent="1" source="tsAS8lpsQ9LGipK0SyVF-4" target="tsAS8lpsQ9LGipK0SyVF-7" edge="1">
          <mxGeometry relative="1" as="geometry">
            <Array as="points">
              <mxPoint x="360" y="-10" />
              <mxPoint x="780" y="-10" />
            </Array>
          </mxGeometry>
        </mxCell>
        <mxCell id="tsAS8lpsQ9LGipK0SyVF-14" style="edgeStyle=orthogonalEdgeStyle;rounded=0;orthogonalLoop=1;jettySize=auto;html=1;entryX=0;entryY=0.5;entryDx=0;entryDy=0;" parent="1" source="tsAS8lpsQ9LGipK0SyVF-4" target="tsAS8lpsQ9LGipK0SyVF-12" edge="1">
          <mxGeometry relative="1" as="geometry" />
        </mxCell>
        <mxCell id="tsAS8lpsQ9LGipK0SyVF-15" style="edgeStyle=orthogonalEdgeStyle;rounded=0;orthogonalLoop=1;jettySize=auto;html=1;entryX=0;entryY=0.5;entryDx=0;entryDy=0;" parent="1" source="tsAS8lpsQ9LGipK0SyVF-4" target="tsAS8lpsQ9LGipK0SyVF-13" edge="1">
          <mxGeometry relative="1" as="geometry">
            <Array as="points">
              <mxPoint x="360" y="180" />
            </Array>
          </mxGeometry>
        </mxCell>
        <mxCell id="tsAS8lpsQ9LGipK0SyVF-4" value="" style="rhombus;whiteSpace=wrap;html=1;" parent="1" vertex="1">
          <mxGeometry x="330" y="45" width="60" height="30" as="geometry" />
        </mxCell>
        <mxCell id="tsAS8lpsQ9LGipK0SyVF-16" style="edgeStyle=orthogonalEdgeStyle;rounded=0;orthogonalLoop=1;jettySize=auto;html=1;entryX=0;entryY=0.5;entryDx=0;entryDy=0;" parent="1" source="tsAS8lpsQ9LGipK0SyVF-12" target="tsAS8lpsQ9LGipK0SyVF-7" edge="1">
          <mxGeometry relative="1" as="geometry" />
        </mxCell>
        <mxCell id="tsAS8lpsQ9LGipK0SyVF-12" value="PlayShieldCard" style="rounded=1;whiteSpace=wrap;html=1;" parent="1" vertex="1">
          <mxGeometry x="480" y="30" width="120" height="60" as="geometry" />
        </mxCell>
        <mxCell id="tsAS8lpsQ9LGipK0SyVF-17" style="edgeStyle=orthogonalEdgeStyle;rounded=0;orthogonalLoop=1;jettySize=auto;html=1;entryX=0.5;entryY=1;entryDx=0;entryDy=0;" parent="1" source="tsAS8lpsQ9LGipK0SyVF-13" target="tsAS8lpsQ9LGipK0SyVF-7" edge="1">
          <mxGeometry relative="1" as="geometry" />
        </mxCell>
        <mxCell id="tsAS8lpsQ9LGipK0SyVF-13" value="PlaySwitchCard" style="rounded=1;whiteSpace=wrap;html=1;" parent="1" vertex="1">
          <mxGeometry x="480" y="150" width="120" height="60" as="geometry" />
        </mxCell>
        <mxCell id="tsAS8lpsQ9LGipK0SyVF-18" value="Spielt Schildkarte" style="text;html=1;align=center;verticalAlign=middle;resizable=0;points=[];autosize=1;strokeColor=none;fillColor=none;" parent="1" vertex="1">
          <mxGeometry x="360" y="30" width="120" height="30" as="geometry" />
        </mxCell>
        <mxCell id="tsAS8lpsQ9LGipK0SyVF-19" value="Spielt Tauschkarte" style="text;html=1;align=center;verticalAlign=middle;resizable=0;points=[];autosize=1;strokeColor=none;fillColor=none;" parent="1" vertex="1">
          <mxGeometry x="354" y="80" width="120" height="30" as="geometry" />
        </mxCell>
        <mxCell id="zmiKJLfu571erMFouguq-1" value="PlayPowerCard" style="shape=umlFrame;whiteSpace=wrap;html=1;pointerEvents=0;recursiveResize=0;container=1;collapsible=0;width=160;" parent="1" vertex="1">
          <mxGeometry x="40" y="-40" width="780" height="270" as="geometry" />
        </mxCell>
        <mxCell id="tsAS8lpsQ9LGipK0SyVF-10" value="Spielt Turbo-Karte" style="text;html=1;align=center;verticalAlign=middle;resizable=0;points=[];autosize=1;strokeColor=none;fillColor=none;" parent="zmiKJLfu571erMFouguq-1" vertex="1">
          <mxGeometry x="320" width="120" height="30" as="geometry" />
        </mxCell>
        <mxCell id="cHX0Tb3sEL5tMcxhRA9A-2" value="[Powerkarte ausgespielt]" style="text;html=1;align=center;verticalAlign=middle;resizable=0;points=[];autosize=1;strokeColor=none;fillColor=none;" vertex="1" parent="zmiKJLfu571erMFouguq-1">
          <mxGeometry x="560" y="190" width="150" height="30" as="geometry" />
        </mxCell>
        <mxCell id="tsAS8lpsQ9LGipK0SyVF-7" value="" style="ellipse;whiteSpace=wrap;html=1;aspect=fixed;" parent="zmiKJLfu571erMFouguq-1" vertex="1">
          <mxGeometry x="720" y="80" width="40" height="40" as="geometry" />
        </mxCell>
        <mxCell id="tsAS8lpsQ9LGipK0SyVF-8" value="" style="ellipse;whiteSpace=wrap;html=1;aspect=fixed;fillColor=#000000;" parent="zmiKJLfu571erMFouguq-1" vertex="1">
          <mxGeometry x="726.41" y="86.40999999999997" width="27.18" height="27.18" as="geometry" />
        </mxCell>
        <mxCell id="cHX0Tb3sEL5tMcxhRA9A-1" value="[Powerkarte ausgespielt]" style="text;html=1;align=center;verticalAlign=middle;resizable=0;points=[];autosize=1;strokeColor=none;fillColor=none;" vertex="1" parent="zmiKJLfu571erMFouguq-1">
          <mxGeometry x="560" y="70" width="150" height="30" as="geometry" />
        </mxCell>
      </root>
    </mxGraphModel>
  </diagram>
</mxfile>
